# xmcd CD database file
#
# Track frame offsets:
#	150
#	10675
#	22499
#	33712
#	46030
#	58517
#	71735
#	82654
#	94461
#	105853
#	116347
#	123678
#	131633
#	141784
#	153309
#	164672
#	177938
#	187425
#	198886
#	212254
#
# Disc length: 3001 seconds
#
# Revision: 5
# Processed by: cddbd v1.5.2PL0 Copyright (c) Steve Scherf et al.
# Submitted via: Feurio! 1.68 - http://www.feurio.com
#
DISCID=180bb714
DTITLE=Various Artist - Rhythm and Blues - Original Masters - CD 5
DYEAR=2005
DGENRE=R&B
TTITLE0=Rufus Thomas - Decorate The Counter
TTITLE1=Mr. Goolge - Oh What A Fool
TTITLE2=Milt Buckner - Red Red Wine
TTITLE3=Jimmy Preston - Oh Babe
TTITLE4=Lemmy Johnson - Eatin' And Sleepin' Blues
TTITLE5=Carl Matthews - Big Man
TTITLE6=Jimmy Crawford - Till My Baby Comes Back
TTITLE7=Cherri Lynn - Your Money Ain't No Long Enough
TTITLE8=Webster and Conroy - Baby Baby
TTITLE9=Eddie Alston - I Just Can't Help It
TTITLE10=Johnny Duke - Oh Oh Mojo
TTITLE11=Hop Wilson - Chicken Stuff
TTITLE12=Mr. Bo - I'm Leaving This Town
TTITLE13=Ch. Sheffield - Shoo Shoo Chicken
TTITLE14=Erline Harris - Long Tall Papa
TTITLE15=Billy Wright - Man's Brand Boogie
TTITLE16=Piano Slim - Lot Of Shakin' Lot Of Jivin'
TTITLE17=Harmon Jones - Pack Your Clothes
TTITLE18=Sandra Grimms - Hallelujah Rock And Roll
TTITLE19=Duke Jenkins - The Duke Walks
EXTD=www.membran.net YEAR: 2005
EXTT0=
EXTT1=
EXTT2=
EXTT3=
EXTT4=
EXTT5=
EXTT6=
EXTT7=
EXTT8=
EXTT9=
EXTT10=
EXTT11=
EXTT12=
EXTT13=
EXTT14=
EXTT15=
EXTT16=
EXTT17=
EXTT18=
EXTT19=
PLAYORDER=
